<svg id="Layer_1" data-name="Layer 1" xmlns="http://www.w3.org/2000/svg" viewBox="0 0 115 30"><defs><style>.cls-1{fill:#a39b8b;}.cls-2{fill:#fff;}</style></defs><title>icon_app</title><path class="cls-1" d="M112,30H3a3.08,3.08,0,0,1-3-3V3A3.08,3.08,0,0,1,3,0H112a3,3,0,0,1,3,3V27A3,3,0,0,1,112,30Z"/><path id="path46" class="cls-2" d="M56,12.82a3.55,3.55,0,1,0,3.61,3.55A3.52,3.52,0,0,0,56,12.82Zm0,5.7a2.06,2.06,0,0,1-2-2.15,2,2,0,1,1,4,0A2.07,2.07,0,0,1,56,18.52Zm-7.86-5.7a3.55,3.55,0,1,0,3.6,3.55A3.52,3.52,0,0,0,48.16,12.82Zm0,5.7a2.07,2.07,0,0,1-2-2.15,2,2,0,1,1,4,0A2.06,2.06,0,0,1,48.16,18.52ZM38.8,13.91v1.51h3.64a3.05,3.05,0,0,1-.83,1.89,3.76,3.76,0,0,1-2.81,1.1,4,4,0,0,1,0-8,3.9,3.9,0,0,1,2.74,1.07l1.08-1.06A5.34,5.34,0,0,0,38.8,8.89a5.63,5.63,0,0,0-5.67,5.52,5.63,5.63,0,0,0,5.67,5.51,5.13,5.13,0,0,0,3.89-1.55A4.91,4.91,0,0,0,44,14.85a5.23,5.23,0,0,0-.08-.94Zm38.27,1.17A3.32,3.32,0,0,0,74,12.82a3.39,3.39,0,0,0-3.38,3.55,3.49,3.49,0,0,0,3.56,3.55,3.56,3.56,0,0,0,3-1.57l-1.22-.81a2.07,2.07,0,0,1-1.77,1,1.83,1.83,0,0,1-1.74-1.07l4.81-2Zm-4.9,1.18a2,2,0,0,1,1.88-2.07,1.39,1.39,0,0,1,1.33.75Zm-3.91,3.45h1.58V9.27H68.26Zm-2.58-6.1h-.06a2.5,2.5,0,0,0-1.88-.79,3.55,3.55,0,0,0,0,7.1,2.44,2.44,0,0,0,1.88-.81h.06v.51a1.83,1.83,0,0,1-1.92,2.09A2,2,0,0,1,62,20.44L60.58,21a3.42,3.42,0,0,0,3.18,2.1c1.85,0,3.41-1.08,3.41-3.7V13H65.68Zm-1.81,4.91a2,2,0,0,1-2-2.14,2.06,2.06,0,0,1,2-2.16,2,2,0,0,1,1.92,2.16A2,2,0,0,1,63.87,18.52ZM84.46,9.27H80.69V19.71h1.57v-4h2.2a3.33,3.33,0,0,0,3.47-3.24,3.33,3.33,0,0,0-3.47-3.24Zm.05,5H82.26V10.72h2.25a1.79,1.79,0,1,1,0,3.58Zm9.73-1.5a3,3,0,0,0-2.8,1.6l1.39.58a1.71,1.71,0,0,1,3.1.57v.11a3.49,3.49,0,0,0-1.64-.4c-1.51,0-3,.82-3,2.35a2.42,2.42,0,0,0,2.62,2.29,2.23,2.23,0,0,0,2-1h.05v.81h1.52v-4c0-1.86-1.39-2.89-3.21-2.89Zm-.19,5.72c-.51,0-1.23-.25-1.23-.89,0-.8.9-1.11,1.67-1.11a2.82,2.82,0,0,1,1.44.35,1.9,1.9,0,0,1-1.88,1.65ZM103,13l-1.81,4.52h-.06L99.26,13h-1.7l2.81,6.32-1.6,3.52h1.64L104.75,13ZM88.8,19.71h1.58V9.27H88.8Z"/><path id="path64" class="cls-2" d="M11.05,6.27a1.36,1.36,0,0,0-.33,1V22.73a1.36,1.36,0,0,0,.33,1l0,.05,8.78-8.67v-.2L11.1,6.22Z"/><path id="path20903" class="cls-2" d="M11.1,23.87,20,15,11.1,6.1a1,1,0,0,0-.38.88V23A1,1,0,0,0,11.1,23.87Z"/><path id="path20905" class="cls-2" d="M20.3,14.74l2.64-2.65L12.17,6.17a1.25,1.25,0,0,0-.6-.16l8.73,8.72Z"/><path id="path20907" class="cls-2" d="M20.3,15.23,11.54,24a1.17,1.17,0,0,0,.63-.17L23,17.89Z"/><path id="path20909" class="cls-2" d="M26.85,14.23l-3.59-2L20.54,15l2.74,2.74,3.57-2c.75-.41.75-1.1,0-1.52Z"/></svg>