<?xml version="1.0" encoding="utf-8"?>
<!-- Generator: Adobe Illustrator 24.2.3, SVG Export Plug-In . SVG Version: 6.00 Build 0)  -->
<svg version="1.1" id="Layer_1" xmlns="http://www.w3.org/2000/svg" xmlns:xlink="http://www.w3.org/1999/xlink" x="0px" y="0px"
	 viewBox="0 0 115 30" style="enable-background:new 0 0 115 30;" xml:space="preserve">
<style type="text/css">
	.st0{fill:#A39B8B;}
	.st1{fill:#FFFFFF;}
</style>
<path class="st0" d="M112,30H3c-1.6,0-3-1.4-3-3V3c0-1.6,1.4-3,3-3h109c1.7,0,3,1.3,3,3v24C115,28.7,113.7,30,112,30z"/>
<g>
	<g>
		<path class="st1" d="M43.2,16h-3.8l-0.9,2.5h-1.7l3.7-9.4h1.6l3.8,9.4h-1.7L43.2,16z M39.9,14.8h2.8l-1-2.7
			c-0.1-0.4-0.3-0.8-0.4-1.2c-0.1,0.4-0.3,0.8-0.4,1.2L39.9,14.8z"/>
		<path class="st1" d="M46.5,13.3c0-0.5,0-1.1-0.1-1.7H48c0.1,0.3,0.1,0.6,0.1,0.9c0.6-0.7,1.3-1,2.1-1c0.5,0,0.9,0.1,1.3,0.4
			c0.4,0.2,0.7,0.6,1,1.1c0.2,0.5,0.4,1.2,0.4,1.9c0,0.8-0.1,1.5-0.4,2.1c-0.3,0.6-0.7,1-1.2,1.3c-0.5,0.3-1.1,0.4-1.7,0.4
			c-0.5,0-0.9-0.1-1.4-0.2v2.9l-1.6,0.1V13.3z M50.7,16.9c0.3-0.4,0.5-1.1,0.5-1.9c0-0.8-0.1-1.3-0.4-1.7c-0.3-0.4-0.6-0.5-1.1-0.5
			c-0.3,0-0.6,0.1-0.9,0.2c-0.3,0.1-0.5,0.3-0.8,0.6v3.7c0.2,0.1,0.3,0.1,0.6,0.2c0.2,0,0.4,0.1,0.6,0.1
			C49.9,17.5,50.4,17.3,50.7,16.9z"/>
		<path class="st1" d="M53.8,13.3c0-0.5,0-1.1-0.1-1.7h1.5c0.1,0.3,0.1,0.6,0.1,0.9c0.6-0.7,1.3-1,2.1-1c0.5,0,0.9,0.1,1.3,0.4
			c0.4,0.2,0.7,0.6,1,1.1c0.2,0.5,0.4,1.2,0.4,1.9c0,0.8-0.1,1.5-0.4,2.1c-0.3,0.6-0.7,1-1.2,1.3c-0.5,0.3-1.1,0.4-1.7,0.4
			c-0.5,0-0.9-0.1-1.4-0.2v2.9l-1.6,0.1V13.3z M58,16.9c0.3-0.4,0.5-1.1,0.5-1.9c0-0.8-0.1-1.3-0.4-1.7c-0.3-0.4-0.6-0.5-1.1-0.5
			c-0.3,0-0.6,0.1-0.9,0.2c-0.3,0.1-0.5,0.3-0.8,0.6v3.7c0.2,0.1,0.3,0.1,0.6,0.2c0.2,0,0.4,0.1,0.6,0.1
			C57.2,17.5,57.7,17.3,58,16.9z"/>
		<path class="st1" d="M63.1,18.1c-0.7-0.4-1.2-0.9-1.6-1.6c-0.4-0.7-0.6-1.6-0.6-2.5c0-1.1,0.2-1.9,0.6-2.7c0.4-0.7,1-1.3,1.7-1.7
			c0.7-0.4,1.6-0.6,2.5-0.6c0.5,0,1.1,0.1,1.5,0.2c0.5,0.1,0.9,0.3,1.4,0.5L68.3,11c-0.9-0.4-1.7-0.6-2.4-0.6
			c-0.7,0-1.2,0.1-1.7,0.4C63.7,11,63.3,11.5,63,12c-0.3,0.5-0.4,1.2-0.4,2c0,0.7,0.1,1.3,0.3,1.8c0.2,0.5,0.5,0.9,1,1.2
			c0.5,0.3,1,0.5,1.7,0.5c0.3,0,0.6,0,0.9-0.1c0.3-0.1,0.6-0.1,0.9-0.2v-1.9h-2.2V14H69v3.9c-0.5,0.3-1.1,0.4-1.7,0.6
			c-0.6,0.1-1.2,0.2-1.8,0.2C64.6,18.7,63.8,18.5,63.1,18.1z"/>
		<path class="st1" d="M74.7,18.6c-0.1-0.3-0.1-0.6-0.1-0.9c-0.2,0.3-0.6,0.5-1,0.7c-0.4,0.2-0.8,0.3-1.3,0.3
			c-0.4,0-0.8-0.1-1.1-0.2c-0.3-0.2-0.6-0.4-0.8-0.7c-0.2-0.3-0.3-0.7-0.3-1.2c0-0.7,0.2-1.2,0.7-1.6c0.5-0.4,1.3-0.6,2.4-0.6
			c0.4,0,0.8,0,1.3,0.1v-0.1c0-0.6-0.1-1.1-0.4-1.3c-0.3-0.3-0.6-0.4-1.1-0.4c-0.3,0-0.7,0-1.1,0.1c-0.4,0.1-0.7,0.2-1,0.4L70.6,12
			c0.3-0.1,0.7-0.2,1.1-0.4c0.5-0.1,1-0.2,1.5-0.2c0.6,0,1.1,0.1,1.5,0.3c0.4,0.2,0.8,0.5,1,0.9c0.2,0.4,0.4,1,0.4,1.8v2.8
			c0,0.3,0,0.7,0.1,1.3H74.7z M73.7,17.3c0.3-0.2,0.6-0.4,0.8-0.6v-1.3c-0.4,0-0.8-0.1-1.1-0.1c-0.7,0-1.1,0.1-1.4,0.3
			c-0.3,0.2-0.4,0.5-0.4,0.9c0,0.3,0.1,0.6,0.3,0.8c0.2,0.2,0.4,0.2,0.7,0.2C73,17.5,73.4,17.4,73.7,17.3z"/>
		<path class="st1" d="M77.3,16.9V8.6l1.6-0.1v8.1c0,0.3,0.1,0.5,0.2,0.6c0.1,0.1,0.3,0.2,0.5,0.2c0.1,0,0.2,0,0.4-0.1l0.2,1.1
			c-0.2,0.1-0.3,0.1-0.6,0.1c-0.2,0-0.4,0.1-0.6,0.1C77.9,18.7,77.3,18.1,77.3,16.9z"/>
		<path class="st1" d="M81.3,16.9V8.6l1.6-0.1v8.1c0,0.3,0.1,0.5,0.2,0.6c0.1,0.1,0.3,0.2,0.5,0.2c0.1,0,0.2,0,0.4-0.1l0.2,1.1
			c-0.2,0.1-0.3,0.1-0.6,0.1c-0.2,0-0.4,0.1-0.6,0.1C81.9,18.7,81.3,18.1,81.3,16.9z"/>
		<path class="st1" d="M90.7,15.3h-4.6c0.1,1.5,0.8,2.2,2.1,2.2c0.3,0,0.7,0,1-0.1c0.3-0.1,0.7-0.2,1-0.3l0.3,1.1
			c-0.8,0.4-1.7,0.6-2.6,0.6c-0.7,0-1.4-0.1-1.9-0.4c-0.5-0.3-0.9-0.7-1.1-1.2c-0.3-0.5-0.4-1.2-0.4-1.9c0-0.8,0.1-1.4,0.4-2
			c0.3-0.6,0.7-1,1.1-1.3c0.5-0.3,1-0.4,1.7-0.4c0.7,0,1.2,0.2,1.7,0.5c0.4,0.3,0.8,0.7,1,1.2c0.2,0.5,0.3,1.1,0.3,1.7V15.3z
			 M89.1,14.3c0-0.6-0.2-1-0.4-1.3c-0.3-0.3-0.6-0.4-1-0.4c-0.4,0-0.7,0.1-1,0.4c-0.3,0.3-0.4,0.7-0.5,1.2H89.1z"/>
		<path class="st1" d="M91.9,13.3c0-0.4,0-1-0.1-1.8h1.5c0,0.2,0.1,0.4,0.1,0.7c0,0.3,0,0.5,0,0.7c0.2-0.3,0.4-0.6,0.5-0.8
			c0.2-0.2,0.4-0.4,0.6-0.5c0.2-0.1,0.5-0.2,0.8-0.2c0.2,0,0.5,0,0.6,0.1l-0.2,1.4c-0.2,0-0.3-0.1-0.5-0.1c-0.4,0-0.7,0.1-1,0.3
			c-0.3,0.2-0.6,0.5-0.9,0.9v4.5h-1.6V13.3z"/>
		<path class="st1" d="M97,21.4c-0.2,0-0.4-0.1-0.6-0.1l0.3-1.2c0.1,0,0.2,0.1,0.4,0.1c0.2,0,0.3,0,0.5,0c0.7,0,1.2-0.5,1.6-1.4
			l0.1-0.3l-2.6-7h1.7l1.3,3.9c0.2,0.7,0.3,1.2,0.4,1.5c0.1-0.5,0.3-1,0.4-1.5l1.3-4h1.6l-2.6,7.1c-0.2,0.7-0.5,1.2-0.8,1.6
			c-0.3,0.4-0.6,0.7-1,0.9c-0.4,0.2-0.8,0.3-1.4,0.3C97.5,21.5,97.2,21.5,97,21.4z"/>
	</g>
</g>
<g>
	<polygon class="st1" points="19.4,16.6 20.2,16.6 19.8,15.7 	"/>
	<path class="st1" d="M25.1,4.8h-8.9c-4.2,0-5.7,1.5-5.7,5.7v8.9c0,4.2,1.5,5.7,5.7,5.7h8.9c4.2,0,5.7-1.5,5.7-5.7l0-8.9
		C30.8,6.4,29.3,4.8,25.1,4.8z M15.1,17.6h-0.5v-1.1h-1.2v1.1h-0.5V15h0.5v1.1h1.2V15h0.5V17.6z M18.1,16.5c0,0.8-0.4,1.2-1.1,1.2
		c-0.7,0-1.1-0.4-1.1-1.2V15h0.5v1.5c0,0.4,0.2,0.7,0.6,0.7c0.4,0,0.6-0.2,0.6-0.7V15h0.5V16.5z M17.3,8.2h0.5
		c0,1.6,1.3,2.9,2.9,2.9c1.6,0,2.9-1.3,2.9-2.9h0.5c0,1.9-1.5,3.4-3.4,3.4C18.8,11.6,17.3,10.1,17.3,8.2z M20.6,17.6l-0.2-0.6h-1.2
		l-0.2,0.6h-0.5l1.2-2.7H20l1.2,2.7H20.6z M24,17.6h-0.4L23,15.9l-0.6,1.7h-0.4L21,15h0.6l0.6,1.8l0.6-1.8h0.4l0.6,1.8l0.6-1.8H25
		L24,17.6z M27.4,17.6h-2V15h2v0.5h-1.4V16h1v0.5h-1v0.7h1.5V17.6z M28.6,17.6H28V15h0.5V17.6z"/>
</g>
</svg>
