<svg id="Layer_1" data-name="Layer 1" xmlns="http://www.w3.org/2000/svg" viewBox="0 0 115 30"><defs><style>.cls-1{fill:#a39b8b;}.cls-2{fill:#fdfefe;}.cls-3{fill:#fff;}</style></defs><title>icon_app</title><path class="cls-1" d="M112,29.9H3a3.08,3.08,0,0,1-3-3V2.9a3.08,3.08,0,0,1,3-3H112a3,3,0,0,1,3,3v24A3,3,0,0,1,112,29.9Z"/><g id="icon"><path id="Fill-2" class="cls-2" d="M22.4,14.52a4.05,4.05,0,0,1,2-3.46A4,4,0,0,0,21,9.29c-1.42-.18-2.76.79-3.47.79s-1.86-.79-3-.79a4.34,4.34,0,0,0-3.73,2.3c-1.6,2.84-.45,6.93,1.15,9.15.8,1.06,1.69,2.31,2.84,2.31s1.6-.71,3-.71,1.78.71,3,.71,2-1.16,2.75-2.22a8.05,8.05,0,0,0,1.25-2.58,4.58,4.58,0,0,1-2.4-3.73"/><path id="Fill-3" class="cls-2" d="M20.18,7.69a4.34,4.34,0,0,0,1-2.93,3.81,3.81,0,0,0-2.66,1.42,4.46,4.46,0,0,0-1,2.84,3.4,3.4,0,0,0,2.67-1.33"/></g><path id="Fill-4" class="cls-3" d="M41.39,20H39.55l-1-3.12H35.07L34.15,20H32.41L35.8,9.39h2.11L41.39,20Zm-3.12-4.49-.91-2.75c-.09-.27-.28-.91-.55-2h0c-.09.46-.28,1.1-.55,2l-.92,2.75Z"/><path id="Fill-5" class="cls-3" d="M50.17,16.07a4.3,4.3,0,0,1-1.09,3.11,3.36,3.36,0,0,1-2.38,1,2.41,2.41,0,0,1-2.2-1.1v4H42.76V14.88a25.2,25.2,0,0,0-.09-2.56h1.46l.09,1.19h0a2.85,2.85,0,0,1,2.57-1.38,2.93,2.93,0,0,1,2.29,1.1,3.49,3.49,0,0,1,1.09,2.84Zm-1.74.09a3,3,0,0,0-.54-1.83,1.58,1.58,0,0,0-1.47-.73,1.9,1.9,0,0,0-1.19.46,1.66,1.66,0,0,0-.64,1.09,1.2,1.2,0,0,0-.09.55V17a1.88,1.88,0,0,0,1.92,1.92,1.81,1.81,0,0,0,1.47-.73,3.53,3.53,0,0,0,.54-2Z"/><path id="Fill-6" class="cls-3" d="M59.05,16.07A4.27,4.27,0,0,1,58,19.18a3.32,3.32,0,0,1-2.38,1,2.4,2.4,0,0,1-2.19-1.1v4H51.64V14.88a25.2,25.2,0,0,0-.09-2.56H53l.09,1.19h0a2.85,2.85,0,0,1,2.57-1.38A2.9,2.9,0,0,1,58,13.23a3.77,3.77,0,0,1,1.1,2.84Zm-1.74.09a2.89,2.89,0,0,0-.55-1.83,1.55,1.55,0,0,0-1.46-.73,1.9,1.9,0,0,0-1.19.46,1.66,1.66,0,0,0-.64,1.09,1.2,1.2,0,0,0-.09.55V17a1.88,1.88,0,0,0,1.92,1.92,1.67,1.67,0,0,0,1.46-.73,3.46,3.46,0,0,0,.55-2Z"/><path id="Fill-7" class="cls-3" d="M68.94,17A2.71,2.71,0,0,1,68,19.18a4.16,4.16,0,0,1-2.93.92,4.65,4.65,0,0,1-2.74-.64L62.71,18a4.55,4.55,0,0,0,2.48.64,2.15,2.15,0,0,0,1.46-.45A1.37,1.37,0,0,0,67.2,17a1.49,1.49,0,0,0-.46-1.1,5.07,5.07,0,0,0-1.46-.83c-1.92-.73-2.84-1.74-2.84-3a2.61,2.61,0,0,1,1-2.1,4,4,0,0,1,2.65-.83,4.63,4.63,0,0,1,2.38.55L68,11a3.79,3.79,0,0,0-2-.46,1.86,1.86,0,0,0-1.37.46,1.27,1.27,0,0,0-.46,1,1.31,1.31,0,0,0,.46,1,4.66,4.66,0,0,0,1.55.82,6.06,6.06,0,0,1,2,1.28A2.77,2.77,0,0,1,68.94,17"/><path id="Fill-8" class="cls-3" d="M74.52,13.6H72.6v3.75c0,.92.37,1.47,1,1.47a1.8,1.8,0,0,0,.73-.09L74.43,20a5.41,5.41,0,0,1-1.28.18,1.89,1.89,0,0,1-1.56-.64A3.27,3.27,0,0,1,71,17.44V13.6H70V12.32H71V10.94l1.65-.55v1.93h1.93V13.6"/><path id="Fill-9" class="cls-3" d="M83,16.07A4.54,4.54,0,0,1,82,19a3.56,3.56,0,0,1-2.84,1.19,3.38,3.38,0,0,1-2.65-1.1,4.13,4.13,0,0,1-1-2.84,4.39,4.39,0,0,1,1-2.93,4,4,0,0,1,5.49,0,4.08,4.08,0,0,1,1,2.75Zm-1.74.09a3.93,3.93,0,0,0-.46-1.83,1.71,1.71,0,0,0-1.56-.91,1.68,1.68,0,0,0-1.55.91,3.87,3.87,0,0,0,0,3.66,1.69,1.69,0,0,0,1.55.92A1.72,1.72,0,0,0,80.84,18,4.23,4.23,0,0,0,81.3,16.16Z"/><path id="Fill-10" class="cls-3" d="M88.62,13.78h-.55a1.43,1.43,0,0,0-1.37.64A2.6,2.6,0,0,0,86.24,16v4H84.5V14.7a18.69,18.69,0,0,0-.09-2.38h1.46l.1,1.46h.09a2.36,2.36,0,0,1,.82-1.19,2.06,2.06,0,0,1,1.19-.36h.46l.09,1.55"/><path id="Fill-11" class="cls-3" d="M96.22,15.8a1.83,1.83,0,0,1-.09.73H91a2.24,2.24,0,0,0,.73,1.74,2.6,2.6,0,0,0,1.65.55,5.3,5.3,0,0,0,2.11-.37l.27,1.19a7,7,0,0,1-2.56.46A3.8,3.8,0,0,1,90.36,19a3.75,3.75,0,0,1-1-2.84,4.5,4.5,0,0,1,.92-2.93A3.18,3.18,0,0,1,92.92,12a2.73,2.73,0,0,1,2.47,1.19,4.51,4.51,0,0,1,.83,2.57Zm-1.65-.46a1.89,1.89,0,0,0-.37-1.28,1.5,1.5,0,0,0-1.37-.74,1.72,1.72,0,0,0-1.37.74,3.06,3.06,0,0,0-.55,1.28Z"/></svg>