<?xml version="1.0" encoding="utf-8"?>
<!-- Generator: Adobe Illustrator 23.0.4, SVG Export Plug-In . SVG Version: 6.00 Build 0)  -->
<svg version="1.1" id="Layer_1" xmlns="http://www.w3.org/2000/svg" xmlns:xlink="http://www.w3.org/1999/xlink" x="0px" y="0px"
	 viewBox="0 0 107.4 25.6" style="enable-background:new 0 0 107.4 25.6;" xml:space="preserve">
<style type="text/css">
	.st0{fill:#066830;}
</style>
<g>
	<path class="st0" d="M12.9,16.3L12.9,16.3L12.9,16.3C7.5,16.3,4,13.7,4,9.8c0-3.9,3.5-6.5,8.9-6.5c5.4,0.1,8.9,2.6,8.9,6.5
		C21.8,13.7,18.3,16.3,12.9,16.3 M13.1,0.1c0,0-0.1,0-0.2,0c-0.1,0-0.2,0-0.2,0C5.4,0.2,0.2,4.2,0.2,9.8s5.2,9.6,12.5,9.7
		c0,0,0.1,0,0.2,0c0.1,0,0.2,0,0.2,0c7.4-0.1,12.5-4.1,12.5-9.7S20.4,0.2,13.1,0.1"/>
	<path class="st0" d="M94.5,16.3L94.5,16.3L94.5,16.3c-5.4-0.1-8.9-2.6-8.9-6.5c0-3.9,3.5-6.5,8.9-6.5c5.4,0.1,8.9,2.6,8.9,6.5
		C103.4,13.7,99.9,16.3,94.5,16.3 M94.7,0.1c0,0-0.1,0-0.2,0c-0.1,0-0.2,0-0.2,0C87,0.2,81.8,4.2,81.8,9.8s5.2,9.6,12.5,9.7
		c0,0,0.1,0,0.2,0c0.1,0,0.2,0,0.2,0c7.4-0.1,12.5-4.1,12.5-9.7S102.1,0.2,94.7,0.1"/>
	<path class="st0" d="M67.4,16.3L67.4,16.3L67.4,16.3c-5.4-0.1-8.9-2.6-8.9-6.5c0-3.9,3.5-6.5,8.9-6.5c5.4,0.1,8.9,2.6,8.9,6.5
		C76.2,13.7,72.8,16.3,67.4,16.3 M67.5,0.1c0,0-0.1,0-0.2,0c-0.1,0-0.2,0-0.2,0c-3.5,0.1-6.5,1-8.7,2.6V1h-3.8v24.5h3.8v-8.6
		c2.2,1.6,5.2,2.5,8.7,2.6c0,0,0.1,0,0.2,0c0.1,0,0.2,0,0.2,0c7.4-0.1,12.5-4.1,12.5-9.7S74.9,0.2,67.5,0.1"/>
	<path class="st0" d="M40.1,16.3L40.1,16.3L40.1,16.3c-5.4-0.1-8.9-2.6-8.9-6.5c0-3.9,3.5-6.5,8.9-6.5C45.5,3.3,49,5.9,49,9.8
		C49,13.7,45.5,16.3,40.1,16.3 M40.3,0.1c0,0-0.1,0-0.2,0c-0.1,0-0.2,0-0.2,0c-3.5,0.1-6.5,1-8.7,2.6V1h-3.8v24.5h3.8v-8.6
		c2.2,1.6,5.2,2.5,8.7,2.6c0,0,0.1,0,0.2,0c0.1,0,0.2,0,0.2,0c7.4-0.1,12.5-4.1,12.5-9.7S47.7,0.2,40.3,0.1"/>
</g>
</svg>
